<?xml version="1.0" encoding="UTF-8" standalone="no"?>
<!-- Created with Inkscape (http://www.inkscape.org/) -->

<svg
   xmlns:dc="http://purl.org/dc/elements/1.1/"
   xmlns:cc="http://creativecommons.org/ns#"
   xmlns:rdf="http://www.w3.org/1999/02/22-rdf-syntax-ns#"
   xmlns:svg="http://www.w3.org/2000/svg"
   xmlns="http://www.w3.org/2000/svg"
   xmlns:sodipodi="http://sodipodi.sourceforge.net/DTD/sodipodi-0.dtd"
   xmlns:inkscape="http://www.inkscape.org/namespaces/inkscape"
   width="210mm"
   height="297mm"
   viewBox="0 0 210 297"
   version="1.1"
   id="svg8"
   inkscape:version="0.92.4 (5da689c313, 2019-01-14)"
   sodipodi:docname="ConjuntoCompacto.svg">
  <defs
     id="defs2">
    <inkscape:path-effect
       effect="bspline"
       id="path-effect3813"
       is_visible="true"
       weight="33.333333"
       steps="2"
       helper_size="0"
       apply_no_weight="true"
       apply_with_weight="true"
       only_selected="false" />
    <inkscape:path-effect
       effect="bspline"
       id="path-effect3809"
       is_visible="true"
       weight="33.333333"
       steps="2"
       helper_size="0"
       apply_no_weight="true"
       apply_with_weight="true"
       only_selected="false" />
    <inkscape:path-effect
       effect="bspline"
       id="path-effect3800"
       is_visible="true"
       weight="33.333333"
       steps="2"
       helper_size="0"
       apply_no_weight="true"
       apply_with_weight="true"
       only_selected="false" />
    <inkscape:path-effect
       effect="bspline"
       id="path-effect3795"
       is_visible="true"
       weight="33.333333"
       steps="2"
       helper_size="0"
       apply_no_weight="true"
       apply_with_weight="true"
       only_selected="false" />
    <inkscape:path-effect
       effect="bspline"
       id="path-effect3790"
       is_visible="true"
       weight="33.333333"
       steps="2"
       helper_size="0"
       apply_no_weight="true"
       apply_with_weight="true"
       only_selected="false" />
    <inkscape:path-effect
       effect="bspline"
       id="path-effect3786"
       is_visible="true"
       weight="33.333333"
       steps="2"
       helper_size="0"
       apply_no_weight="true"
       apply_with_weight="true"
       only_selected="false" />
    <inkscape:path-effect
       effect="bspline"
       id="path-effect3781"
       is_visible="true"
       weight="33.333333"
       steps="2"
       helper_size="0"
       apply_no_weight="true"
       apply_with_weight="true"
       only_selected="false" />
    <inkscape:path-effect
       effect="bspline"
       id="path-effect3776"
       is_visible="true"
       weight="33.333333"
       steps="2"
       helper_size="0"
       apply_no_weight="true"
       apply_with_weight="true"
       only_selected="false" />
    <inkscape:path-effect
       effect="bspline"
       id="path-effect3771"
       is_visible="true"
       weight="33.333333"
       steps="2"
       helper_size="0"
       apply_no_weight="true"
       apply_with_weight="true"
       only_selected="false" />
    <inkscape:path-effect
       effect="bspline"
       id="path-effect3767"
       is_visible="true"
       weight="33.333333"
       steps="2"
       helper_size="0"
       apply_no_weight="true"
       apply_with_weight="true"
       only_selected="false" />
    <inkscape:path-effect
       effect="bspline"
       id="path-effect3763"
       is_visible="true"
       weight="33.333333"
       steps="2"
       helper_size="0"
       apply_no_weight="true"
       apply_with_weight="true"
       only_selected="false" />
    <inkscape:path-effect
       effect="bspline"
       id="path-effect3759"
       is_visible="true"
       weight="33.333333"
       steps="2"
       helper_size="0"
       apply_no_weight="true"
       apply_with_weight="true"
       only_selected="false" />
    <inkscape:path-effect
       effect="bspline"
       id="path-effect3755"
       is_visible="true"
       weight="33.333333"
       steps="2"
       helper_size="0"
       apply_no_weight="true"
       apply_with_weight="true"
       only_selected="false" />
    <inkscape:path-effect
       effect="bspline"
       id="path-effect3750"
       is_visible="true"
       weight="33.333333"
       steps="2"
       helper_size="0"
       apply_no_weight="true"
       apply_with_weight="true"
       only_selected="false" />
    <inkscape:path-effect
       effect="bspline"
       id="path-effect3745"
       is_visible="true"
       weight="33.333333"
       steps="2"
       helper_size="0"
       apply_no_weight="true"
       apply_with_weight="true"
       only_selected="false" />
    <inkscape:path-effect
       effect="bspline"
       id="path-effect3740"
       is_visible="true"
       weight="33.333333"
       steps="2"
       helper_size="0"
       apply_no_weight="true"
       apply_with_weight="true"
       only_selected="false" />
    <inkscape:path-effect
       effect="bspline"
       id="path-effect3735"
       is_visible="true"
       weight="33.333333"
       steps="2"
       helper_size="0"
       apply_no_weight="true"
       apply_with_weight="true"
       only_selected="false" />
    <inkscape:path-effect
       effect="bspline"
       id="path-effect3730"
       is_visible="true"
       weight="33.333333"
       steps="2"
       helper_size="0"
       apply_no_weight="true"
       apply_with_weight="true"
       only_selected="false" />
    <inkscape:path-effect
       effect="bspline"
       id="path-effect3725"
       is_visible="true"
       weight="33.333333"
       steps="2"
       helper_size="0"
       apply_no_weight="true"
       apply_with_weight="true"
       only_selected="false" />
    <inkscape:path-effect
       effect="bspline"
       id="path-effect3720"
       is_visible="true"
       weight="33.333333"
       steps="2"
       helper_size="0"
       apply_no_weight="true"
       apply_with_weight="true"
       only_selected="false" />
    <inkscape:path-effect
       effect="bspline"
       id="path-effect3715"
       is_visible="true"
       weight="33.333333"
       steps="2"
       helper_size="0"
       apply_no_weight="true"
       apply_with_weight="true"
       only_selected="false" />
    <inkscape:path-effect
       effect="bspline"
       id="path-effect3809-3"
       is_visible="true"
       weight="33.333333"
       steps="2"
       helper_size="0"
       apply_no_weight="true"
       apply_with_weight="true"
       only_selected="false" />
  </defs>
  <sodipodi:namedview
     id="base"
     pagecolor="#ffffff"
     bordercolor="#666666"
     borderopacity="1.0"
     inkscape:pageopacity="0.0"
     inkscape:pageshadow="2"
     inkscape:zoom="0.76289062"
     inkscape:cx="400"
     inkscape:cy="431.25501"
     inkscape:document-units="mm"
     inkscape:current-layer="layer6"
     showgrid="false"
     inkscape:window-width="1366"
     inkscape:window-height="705"
     inkscape:window-x="-8"
     inkscape:window-y="-8"
     inkscape:window-maximized="1" />
  <metadata
     id="metadata5">
    <rdf:RDF>
      <cc:Work
         rdf:about="">
        <dc:format>image/svg+xml</dc:format>
        <dc:type
           rdf:resource="http://purl.org/dc/dcmitype/StillImage" />
        <dc:title></dc:title>
      </cc:Work>
    </rdf:RDF>
  </metadata>
  <g
     inkscape:label="Capa 1"
     inkscape:groupmode="layer"
     id="layer1">
    <path
       style="fill:none;stroke:#000000;stroke-width:0.26458332px;stroke-linecap:butt;stroke-linejoin:miter;stroke-opacity:1"
       d="m 47.745069,145.20965 c 1.965294,6.35832 3.814985,11.79179 8.150467,14.10395 4.335482,2.31216 11.156017,1.50295 16.415968,-1.04041 5.259952,-2.54336 8.959488,-6.82095 9.768653,-10.57792 0.809165,-3.75697 -1.271873,-6.99414 -2.485716,-10.92477 -1.213843,-3.93063 -1.560666,-8.55495 6.878169,-7.51453 8.438836,1.04043 25.66499,7.74591 30.52051,15.02887 4.85552,7.28295 -2.6589,15.1442 -3.06352,21.56055 -0.40461,6.41635 6.30029,11.38722 14.27718,11.84957 7.9769,0.46235 17.22541,-3.58388 23.87248,-1.0985 6.64706,2.48537 10.6934,11.50292 4.56637,17.63007 -6.12703,6.12715 -22.4272,9.36406 -34.67014,9.67522 -12.24294,0.31115 -20.7048,-2.39195 -25.155693,-0.65797 -4.450893,1.73398 -5.028909,7.86096 -11.909707,11.15393 -6.880797,3.29297 -20.286275,3.75925 -25.719805,-0.22939 -5.43353,-3.98863 -3.005861,-12.42767 1.155934,-18.84365 4.161795,-6.41598 10.057902,-10.80916 7.8616,-14.21934 -2.196301,-3.41017 -12.48572,-5.83801 -20.809454,-9.36403 -8.323735,-3.52601 -14.681927,-8.15015 -17.572077,-13.98842 -2.890151,-5.83827 -2.312126,-12.89016 -3.353278,-16.24972 -1.041152,-3.35956 -3.929622,-2.9985 -5.895107,1.97292 -1.965486,4.97142 -3.12142,14.56567 1.040556,21.90688 4.161975,7.3412 13.64135,12.42769 15.632798,18.00561 1.991448,5.57792 -3.609771,11.7626 -3.817897,19.95935 -0.208126,8.19676 4.832048,18.27711 11.941954,24.69331 7.109905,6.4162 16.242655,9.0751 26.300289,10.23113 10.057635,1.15603 21.040375,0.80921 31.444777,-2.60117 10.4044,-3.41038 20.23112,-9.88446 31.56018,-10.46244 11.32907,-0.57798 24.1617,4.74004 33.93034,-0.0577 9.76865,-4.79775 16.47384,-19.71102 18.38127,-34.91294 1.90743,-15.20192 -0.98277,-30.6934 -7.34087,-38.95908 -6.35811,-8.26568 -16.18472,-9.30615 -22.83223,-13.64152 -6.64751,-4.33538 -10.1156,-11.96516 -15.4911,-17.1673 -5.3755,-5.20215 -12.65877,-7.97673 -23.87261,-9.82645 -11.21385,-1.84972 -26.357884,-2.77454 -39.652589,-0.34686 -13.294705,2.42767 -24.739475,8.20786 -29.421657,14.73967 -4.682181,6.53181 -2.601339,13.81476 -0.636045,20.17308 z"
       id="path3713"
       inkscape:connector-curvature="0"
       inkscape:path-effect="#path-effect3715"
       inkscape:original-d="m 47.860727,146.13466 c 1.849954,5.4332 3.699645,10.86667 5.549069,16.3004 6.821194,-0.80953 13.641729,-1.61875 20.462195,-2.42772 3.699486,-4.27749 7.399025,-8.55508 11.098138,-12.83223 -2.080498,-3.23701 -4.161535,-6.47418 -6.242703,-9.71087 -0.346543,-4.62439 -0.693367,-9.24871 -1.04045,-13.87267 17.224597,6.7045 34.450744,13.40999 51.675714,20.11538 -7.51404,7.86085 -15.02847,15.72209 -22.5431,23.58354 6.70562,4.97095 13.41052,9.94182 20.11538,14.91313 9.24865,-4.04644 18.49717,-8.09266 27.74535,-12.13859 4.04632,9.01666 8.09266,18.03421 12.13859,27.05171 -16.30035,3.23674 -32.60052,6.47365 -48.90118,9.71087 -8.20789,-2.54363 -16.64694,-5.31812 -24.970813,-7.97679 -0.577773,6.12696 -1.15579,12.25394 -1.734084,18.3813 -13.179393,0.57779 -26.589027,0.92458 -39.883937,1.38727 2.428031,-8.43965 4.8557,-16.87869 7.283154,-25.31763 5.89593,-4.39312 11.792037,-8.7863 17.68766,-13.17905 -10.288119,-2.42786 -20.577537,-4.8557 -30.866701,-7.28315 -6.358163,-4.62457 -12.716354,-9.24871 -19.074928,-13.87267 0.578299,-7.05226 1.15632,-14.10415 1.734086,-21.15583 -2.658559,0.34654 -5.548807,0.69337 -8.323606,1.04045 -1.155914,9.59602 -2.311848,19.19027 -3.468169,28.7858 9.480214,5.08653 18.959586,10.17303 28.438982,15.25994 -5.433144,6.12677 -11.097873,12.25393 -16.647207,18.38129 5.087141,10.2891 10.173557,20.34633 15.259941,30.51989 9.133203,2.65869 18.265952,5.31759 27.39853,7.97678 10.982592,-0.34707 21.965332,-0.69389 32.947602,-1.04045 9.8265,-6.47401 19.65322,-12.94809 29.47943,-19.42174 12.83209,5.31743 25.66472,10.63545 38.49668,15.95357 6.70532,-14.91323 13.41051,-29.82651 20.11537,-44.73937 -2.88981,-15.49109 -5.78001,-30.98257 -8.67042,-46.47346 -9.82608,-1.0407 -19.65269,-2.08116 -29.47943,-3.12135 -3.46799,-7.63042 -6.93607,-15.26021 -10.40451,-22.88991 -7.28277,-2.77476 -14.56604,-5.54934 -21.84946,-8.32361 -15.14437,-0.92512 -30.288407,-1.84995 -45.433009,-2.77453 -11.444877,5.78011 -22.889646,11.5603 -34.334867,17.34084 2.081223,7.28309 4.162065,14.56604 6.242703,21.84946 z"
       transform="matrix(0.54440823,0,0,0.67810842,47.35699,53.013108)" />
  </g>
  <g
     inkscape:groupmode="layer"
     id="layer2"
     inkscape:label="Capa 2" />
  <g
     inkscape:groupmode="layer"
     id="layer3"
     inkscape:label="Capa 3">
    <path
       style="fill:none;stroke:#000000;stroke-width:0.26458332px;stroke-linecap:butt;stroke-linejoin:miter;stroke-opacity:1"
       d="m 48.785786,140.06529 c -10.404423,2.83219 -22.658621,12.08064 -22.77424,24.0461 -0.115619,11.96545 11.907074,26.64702 23.641202,28.26536 11.734127,1.61835 23.179059,-9.82658 27.571944,-19.99973 4.392885,-10.17315 1.733897,-19.07498 -3.872804,-25.31753 -5.606701,-6.24256 -14.161679,-9.8264 -24.566102,-6.9942 z"
       id="path3723"
       inkscape:connector-curvature="0"
       inkscape:path-effect="#path-effect3725"
       inkscape:original-d="m 50.635262,133.64926 c -12.253931,9.24818 -24.508128,18.49663 -36.762588,27.74534 12.02354,14.68201 24.046234,29.36357 36.068954,44.04575 11.445245,-11.44525 22.890178,-22.89018 34.33487,-34.33487 -2.658605,-8.9017 -5.317596,-17.80353 -7.976788,-26.7049 -8.554389,-3.58397 -17.109368,-7.16781 -25.664448,-10.75132 z" />
  </g>
  <g
     inkscape:groupmode="layer"
     id="layer4"
     inkscape:label="Capa 4"
     style="display:inline">
    <path
       style="fill:none;stroke:#000000;stroke-width:0.26458332px;stroke-linecap:butt;stroke-linejoin:miter;stroke-opacity:1"
       d="m 98.669665,165.96087 c -7.109722,3.17928 -16.820593,4.33533 -23.410251,9.36417 -6.589657,5.02883 -10.05772,13.9302 -3.236717,24.33509 6.821003,10.4049 23.930019,22.31185 32.195793,20.63545 8.26577,-1.6764 7.68774,-16.93639 11.90743,-27.0518 4.21969,-10.11541 13.23708,-15.08653 13.8151,-21.04001 0.57801,-5.95347 -7.28344,-12.89005 -13.46823,-13.75723 -6.18479,-0.86719 -10.6934,4.33505 -17.803125,7.51433 z"
       id="path3728"
       inkscape:connector-curvature="0"
       inkscape:path-effect="#path-effect3730"
       inkscape:original-d="m 101.27052,167.98413 c -9.710604,1.15579 -19.421476,2.31184 -29.132613,3.46816 -3.468008,8.90164 -6.936073,17.803 -10.404507,26.7049 17.110511,11.90754 34.219528,23.81449 51.3289,35.72214 -0.57777,-15.26016 -1.1558,-30.52015 -1.73409,-45.77983 9.01735,-4.97122 18.03474,-9.94235 27.05172,-14.91312 -7.86065,-6.93636 -15.7221,-13.87294 -23.58355,-20.80901 -4.50836,5.202 -9.01697,10.40424 -13.52586,15.60676 z" />
  </g>
  <g
     inkscape:groupmode="layer"
     id="layer5"
     inkscape:label="Capa 5">
    <path
       style="fill:none;stroke:#000000;stroke-width:0.26458332px;stroke-linecap:butt;stroke-linejoin:miter;stroke-opacity:1"
       d="m 147.16617,125.09447 c -12.83225,-1.96528 -25.54886,-4.85542 -35.25975,-2.83243 -9.7109,2.02299 -16.41592,8.95923 -16.878376,16.47386 -0.462457,7.51463 5.317596,15.60671 12.716496,20.86683 7.39889,5.26011 16.41608,7.68781 29.1337,7.75352 12.71762,0.0657 29.36294,-2.26231 30.63465,-6.135 1.27171,-3.87269 -12.71682,-9.30625 -20.75152,-14.3352 -8.0347,-5.02895 -10.11558,-9.65313 -2.60127,-12.54321 7.51431,-2.89008 24.62439,-4.04616 26.70537,-5.14439 2.08099,-1.09822 -10.86705,-2.13869 -23.6993,-4.10398 z"
       id="path3733"
       inkscape:connector-curvature="0"
       inkscape:path-effect="#path-effect3735"
       inkscape:original-d="m 147.05035,126.01929 c -12.71636,-2.89041 -25.43297,-5.78055 -38.14986,-8.67043 -6.70496,6.93618 -13.409985,13.87241 -20.115373,20.80901 5.780767,8.09245 11.560823,16.18453 17.340843,24.27719 9.01756,2.42746 18.03474,4.85517 27.05171,7.28315 16.41594,-2.31233 33.06348,-4.62449 49.59481,-6.93634 -13.98776,-5.43363 -27.97629,-10.86719 -41.96484,-16.30039 -2.08065,-4.62453 -4.16153,-9.24871 -6.2427,-13.87267 17.10945,-1.15629 34.21953,-2.31238 51.3289,-3.46817 -12.94736,-1.0407 -25.8954,-2.08117 -38.84349,-3.12135 z" />
  </g>
  <g
     inkscape:groupmode="layer"
     id="layer6"
     inkscape:label="Capa 6"
     style="display:inline">
    <path
       style="fill:none;stroke:#000000;stroke-width:0.26458332px;stroke-linecap:butt;stroke-linejoin:miter;stroke-opacity:1"
       d="m 76.820179,121.51065 c -3.757117,-0.92491 -4.219539,-0.8093 -7.342892,3.7022 -3.123353,4.5115 -8.899743,13.40714 -10.22928,22.88704 -1.329538,9.47991 1.791684,19.53718 5.028698,26.06903 3.237013,6.53186 6.589553,9.53759 15.780577,8.67042 9.191024,-0.86718 24.219298,-5.60687 33.525428,-12.1386 9.30612,-6.53174 12.88997,-14.85552 8.78617,-22.54298 -4.1038,-7.68745 -15.89603,-14.73967 -25.317858,-19.24829 -9.421831,-4.50863 -16.473726,-6.47391 -20.230843,-7.39882 z"
       id="path3738"
       inkscape:connector-curvature="0"
       inkscape:path-effect="#path-effect3740"
       inkscape:original-d="m 73.525173,120.47021 c -0.462156,0.11535 -0.924579,0.23095 -1.387266,0.34682 -5.783908,8.90736 -11.560297,17.803 -17.340845,26.7049 3.121724,10.05777 6.242947,20.11504 9.364056,30.17307 3.352851,3.0055 6.705388,6.01123 10.057689,9.01724 15.029447,-4.74024 30.057723,-9.47993 45.086193,-14.2195 3.58396,-8.32369 7.16781,-16.64747 10.75132,-24.97081 -11.79105,-7.05194 -23.58328,-14.10415 -35.375318,-21.15583 -7.051725,-1.96557 -14.10362,-3.93085 -21.155829,-5.89589 z"
       sodipodi:nodetypes="ccccccccc" />
  </g>
  <g
     inkscape:groupmode="layer"
     id="layer7"
     inkscape:label="Capa 7">
    <path
       style="fill:none;stroke:#000000;stroke-width:0.26458332px;stroke-linecap:butt;stroke-linejoin:miter;stroke-opacity:1"
       d="m 81.906807,228.33012 c 6.069294,-2.8903 11.15594,-9.59542 9.826514,-18.78569 -1.329426,-9.19028 -9.075342,-20.86696 -18.786058,-27.74544 -9.710715,-6.87848 -21.386944,-8.95939 -23.178887,-3.23685 -1.791943,5.72254 6.300304,19.24816 9.941921,29.01674 3.641616,9.76859 2.832383,15.78004 5.954,19.24839 3.121617,3.46836 10.173216,4.39316 16.24251,1.50285 z"
       id="path3743"
       inkscape:connector-curvature="0"
       inkscape:path-effect="#path-effect3745"
       inkscape:original-d="m 82.889229,232.14524 c 5.086911,-6.70539 10.17356,-13.41051 15.259942,-20.11537 -7.744971,-11.67592 -15.490889,-23.3526 -23.23673,-35.02851 -11.67584,-2.08115 -23.352069,-4.16206 -35.028502,-6.2427 8.092803,13.52584 16.185052,27.05145 24.27718,40.57757 -0.80898,6.01127 -1.618213,12.02272 -2.427719,18.03448 7.052553,0.92462 14.104152,1.84942 21.155829,2.77453 z" />
  </g>
  <g
     inkscape:groupmode="layer"
     id="layer8"
     inkscape:label="Capa 8">
    <path
       style="fill:none;stroke:#000000;stroke-width:0.26458332px;stroke-linecap:butt;stroke-linejoin:miter;stroke-opacity:1"
       d="m 135.14298,231.45154 c -3.81492,-0.57792 -12.60095,-6.01138 -18.95929,-10.1732 -6.35834,-4.16182 -10.2889,-7.05194 -11.32932,-12.08099 -1.04042,-5.02906 0.80925,-12.19653 4.10399,-18.4391 3.29475,-6.24257 8.03477,-11.56065 13.1791,-16.53155 5.14432,-4.97091 10.69368,-9.59537 17.97658,-11.50276 7.2829,-1.90738 16.3006,-1.0981 21.84951,6.82056 5.54891,7.91866 7.62986,22.94779 5.37567,31.09808 -2.25419,8.15029 -8.84361,9.42193 -10.80902,11.90754 -1.9654,2.48562 0.69341,6.18483 -0.11578,7.10971 -0.80919,0.92488 -5.08654,-0.92479 -5.78021,0.46249 -0.69368,1.38727 2.19637,6.01136 0.46234,7.10966 -1.73404,1.0983 -8.09225,-1.32938 -10.69346,-0.40461 -2.60122,0.92478 -1.44518,5.20209 -5.26011,4.62417 z"
       id="path3748"
       inkscape:connector-curvature="0"
       inkscape:path-effect="#path-effect3750"
       inkscape:original-d="m 140.11401,236.30704 c -8.78576,-5.43372 -17.57179,-10.86719 -26.35808,-16.30039 -3.93036,-2.89043 -7.86092,-5.78054 -11.79177,-8.67042 1.84997,-7.16789 3.69964,-14.33536 5.54907,-21.50264 4.73989,-5.3179 9.47992,-10.63598 14.21949,-15.95358 5.54904,-4.62424 11.0984,-9.24871 16.64721,-13.87267 9.01704,0.80893 18.03474,1.61821 27.05171,2.42772 2.08111,15.02806 4.16207,30.05719 6.24271,45.08619 -6.58936,1.27141 -13.17878,2.54306 -19.76857,3.81498 2.65932,3.69929 5.31813,7.3985 7.97679,11.09814 -4.2772,-1.84998 -8.55455,-3.69964 -12.83222,-5.54907 2.89049,4.6241 5.78054,9.24819 8.67042,13.87268 -6.35814,-2.42802 -12.71635,-4.8557 -19.07493,-7.28316 1.15635,4.27724 2.31238,8.55455 3.46817,12.83222 z" />
  </g>
  <g
     inkscape:groupmode="layer"
     id="layer9"
     inkscape:label="Capa 9"
     style="display:inline">
    <path
       style="fill:none;stroke:#000000;stroke-width:0.26458332px;stroke-linecap:butt;stroke-linejoin:miter;stroke-opacity:1"
       d="m 111.733,117.17527 c 5.02871,2.2542 4.21947,9.53735 -0.28917,14.73975 -4.50863,5.20241 -12.716312,8.32364 -17.745374,6.06915 -5.029062,-2.25449 -6.878682,-9.88417 -2.370018,-15.08634 4.508663,-5.20216 15.375862,-7.97677 20.404562,-5.72256 z"
       id="path3769"
       inkscape:connector-curvature="0"
       inkscape:path-effect="#path-effect3771"
       inkscape:original-d="m 117.57092,112.14661 c -0.80898,7.28289 -1.61822,14.56604 -2.42772,21.84946 -8.20806,3.12121 -16.415738,6.24244 -24.623999,9.36406 -1.849498,-7.63053 -3.699115,-15.26021 -5.549072,-22.88992 10.866925,-2.77473 21.734121,-5.54933 32.600791,-8.3236 z" />
  </g>
  <g
     inkscape:groupmode="layer"
     id="layer10"
     inkscape:label="Capa 10">
    <path
       style="fill:none;stroke:#000000;stroke-width:0.26458332px;stroke-linecap:butt;stroke-linejoin:miter;stroke-opacity:1"
       d="m 108.90077,204.16849 c -6.35827,0.11571 -22.427451,4.85554 -25.317613,10.46254 -2.890161,5.60701 7.398538,12.08079 21.733693,12.13854 14.33516,0.0577 32.71657,-6.3006 33.93054,-9.6531 1.21397,-3.3525 -14.73988,-3.69933 -21.04037,-6.12723 -6.3005,-2.42791 -2.94799,-6.93646 -9.30625,-6.82075 z"
       id="path3774"
       inkscape:connector-curvature="0"
       inkscape:path-effect="#path-effect3776"
       inkscape:original-d="m 118.61137,199.54446 c -16.06892,4.73956 -32.138103,9.47939 -48.207548,14.21949 10.289366,6.47378 20.578064,12.94757 30.866698,19.42174 18.38144,-6.35853 36.76285,-12.71688 55.14388,-19.07492 -15.95303,-0.34708 -31.90688,-0.6939 -47.86072,-1.04045 3.35288,-4.50896 6.70539,-9.01751 10.05769,-13.52586 z" />
  </g>
  <g
     inkscape:groupmode="layer"
     id="layer11"
     inkscape:label="Capa 11">
    <path
       style="fill:none;stroke:#000000;stroke-width:0.26458332px;stroke-linecap:butt;stroke-linejoin:miter;stroke-opacity:1"
       d="m 58.207586,190.29588 c -6.994081,0.69346 -11.618306,7.05177 -9.190491,16.9943 2.427815,9.94252 11.90703,23.46774 23.063175,27.86071 11.156146,4.39297 23.988317,-0.34684 26.24256,-7.80323 2.25424,-7.45639 -6.069569,-17.62993 -14.913324,-25.20205 -8.843756,-7.57213 -18.207839,-12.54319 -25.20192,-11.84973 z"
       id="path3779"
       inkscape:connector-curvature="0"
       inkscape:path-effect="#path-effect3781"
       inkscape:original-d="m 55.837515,184.63133 c -4.623961,6.35805 -9.248185,12.71636 -13.872675,19.07493 9.48037,13.52623 18.959586,27.05145 28.438982,40.57757 12.832541,-4.74011 25.664713,-9.47992 38.496668,-14.21949 -8.32313,-10.1733 -16.64694,-20.34685 -24.970811,-30.51988 -9.363762,-4.97129 -18.727845,-9.94235 -28.092164,-14.91313 z" />
  </g>
  <g
     inkscape:groupmode="layer"
     id="layer12"
     inkscape:label="Capa 12">
    <path
       style="fill:none;stroke:#000000;stroke-width:0.26458332px;stroke-linecap:butt;stroke-linejoin:miter;stroke-opacity:1"
       d="m 49.999481,121.45276 c 0.635774,8.03444 0.982592,23.6412 16.531905,34.62393 15.549314,10.98274 46.299904,17.34094 66.010644,14.91309 19.71074,-2.42785 28.38122,-13.64167 17.2546,-23.35227 -11.12662,-9.71059 -42.05185,-17.91881 -62.398477,-23.52569 -20.346624,-5.60688 -30.115321,-8.6126 -34.5373,-9.88425 -4.421978,-1.27166 -3.497145,-0.80925 -2.861372,7.22519 z"
       id="path3784"
       inkscape:connector-curvature="0"
       inkscape:path-effect="#path-effect3786"
       inkscape:original-d="m 50.288443,113.88069 c 0.347083,15.6065 0.693899,31.21326 1.040453,46.82028 30.751867,6.35815 61.502454,12.71636 92.253284,19.07493 8.67063,-11.21394 17.34111,-22.42776 26.01126,-33.64124 -30.92335,-8.20805 -61.84858,-16.41627 -92.773263,-24.62401 -9.768549,-3.00603 -19.537246,-6.01175 -29.306268,-9.01722 0.925126,0.46216 1.849956,0.92458 2.774534,1.38726 z" />
    <path
       style="fill:none;stroke:#000000;stroke-width:0.26458332px;stroke-linecap:butt;stroke-linejoin:miter;stroke-opacity:1"
       d="m 54.045917,164.5737 c -12.889998,3.06349 -30.346449,9.30619 -31.849369,23.87273 -1.50292,14.56654 12.947521,37.45604 32.831905,42.94725 19.884385,5.49121 45.201937,-6.41614 50.866527,-20.92447 5.66459,-14.50834 -8.32386,-31.61818 -19.479653,-40.23079 -11.155793,-8.6126 -19.479413,-8.72821 -32.36941,-5.66472 z"
       id="path3788"
       inkscape:connector-curvature="0"
       inkscape:path-effect="#path-effect3790"
       inkscape:original-d="M 58.61205,161.3946 C 41.155866,167.63704 23.699417,173.87975 6.2427034,180.12271 20.693935,203.01278 35.144374,225.90228 49.594812,248.79245 74.912783,236.88477 100.23034,224.97743 125.5477,213.07032 111.55986,195.96064 97.571408,178.85079 83.582863,161.74142 75.259538,161.62555 66.935918,161.50995 58.61205,161.3946 Z" />
    <path
       transform="translate(7.437142,0.49061695)"
       style="display:inline;fill:none;stroke:#000000;stroke-width:0.26458332px;stroke-linecap:butt;stroke-linejoin:miter;stroke-opacity:1"
       d="m 174.68034,177.57937 c -10.98247,1.84962 -27.62968,7.05187 -35.66443,14.39284 -8.03475,7.34097 -7.45673,16.82045 -2.60117,25.83793 4.85557,9.01748 13.98818,17.57207 21.79163,15.78002 7.80346,-1.79204 14.27738,-13.93064 14.56655,-19.075 0.28916,-5.14437 -5.60688,-3.29463 -10.69377,-3.81486 -5.08689,-0.52023 -9.36407,-3.41022 -6.06913,-4.97092 3.29495,-1.5607 14.16173,-1.79191 20.23085,2.83208 6.06913,4.624 7.34082,14.1039 10.80916,13.98813 3.46834,-0.11576 9.13288,-9.8264 7.63012,-16.70469 -1.50277,-6.87828 -10.17347,-10.92461 -11.16629,-14.93054 -0.99282,-4.00593 5.96407,-8.1329 6.71555,-10.90728 0.75149,-2.77439 -4.56661,-4.27733 -15.54907,-2.42771 z"
       id="path3807"
       inkscape:connector-curvature="0"
       inkscape:path-effect="#path-effect3809-3"
       inkscape:original-d="m 180.34477,174.22683 c -16.64695,5.20199 -33.29416,10.40424 -49.94163,15.60676 0.5783,9.47957 1.15632,18.95905 1.73408,28.43898 9.13335,8.55477 18.26595,17.10937 27.39853,25.66445 6.47418,-12.13885 12.9481,-24.27745 19.42175,-36.41577 -5.89547,1.84937 -11.79151,3.69911 -17.68766,5.54907 -4.27737,-2.89056 -8.55455,-5.78055 -12.83222,-8.67042 10.86734,-0.23149 21.73412,-0.46269 32.60078,-0.69364 1.27189,9.47916 2.54359,18.95906 3.81498,28.43898 5.66508,-9.71136 11.32962,-19.422 16.99403,-29.13261 -8.66988,-4.04633 -17.34058,-8.09266 -26.01126,-12.13859 6.70548,-3.93091 13.64173,-8.09266 20.46219,-12.13859 -5.31735,-1.50307 -10.63545,-3.00601 -15.95357,-4.50862 z" />
  </g>
  <g
     inkscape:groupmode="layer"
     id="layer13"
     inkscape:label="Capa 13">
    <path
       style="fill:none;stroke:#000000;stroke-width:0.26458332px;stroke-linecap:butt;stroke-linejoin:miter;stroke-opacity:1"
       d="m 60.982099,114.40079 c -11.040257,7.45639 -25.606565,27.57177 -21.618055,43.00538 3.988511,15.43361 26.531271,26.18477 37.57155,18.72811 11.04028,-7.45666 10.577855,-33.12123 6.58953,-48.5544 C 79.536799,112.1467 72.022355,106.94439 60.982099,114.40079 Z"
       id="path3793"
       inkscape:connector-curvature="0"
       inkscape:path-effect="#path-effect3795"
       inkscape:original-d="m 64.507935,101.7421 c -14.566043,20.11512 -29.13235,40.2305 -43.698924,60.34614 22.543695,10.75122 45.086457,21.50238 67.629287,32.25397 C 87.976143,168.67762 87.51372,143.01305 87.051032,117.34886 79.537006,112.1464 72.022564,106.94409 64.507935,101.7421 Z" />
  </g>
  <g
     inkscape:groupmode="layer"
     id="layer14"
     inkscape:label="Capa 14">
    <path
       style="fill:none;stroke:#000000;stroke-width:0.26458332px;stroke-linecap:butt;stroke-linejoin:miter;stroke-opacity:1"
       d="m 155.43203,217.40541 c -11.04035,-3.98828 -43.52553,-3.64146 -59.652645,1.21389 -16.127118,4.85535 -15.895912,14.21918 -4.855255,18.20775 11.04066,3.98858 32.88977,2.60133 49.01676,-2.25421 16.12699,-4.85555 26.53149,-13.17915 15.49114,-17.16743 z"
       id="path3798"
       inkscape:connector-curvature="0"
       inkscape:path-effect="#path-effect3800"
       inkscape:original-d="m 176.8766,213.07032 c -32.48492,0.34655 -64.9701,0.69337 -97.45554,1.04045 0.231478,9.36387 0.462684,18.7277 0.693635,28.09217 21.850075,-1.38756 43.699185,-2.77481 65.548385,-4.16181 10.40477,-8.32387 20.80928,-16.64747 31.21352,-24.97081 z"
       sodipodi:nodetypes="ccccc" />
  </g>
  <g
     inkscape:groupmode="layer"
     id="layer15"
     inkscape:label="Capa 15"
     style="display:inline">
    <path
       style="fill:none;stroke:#000000;stroke-width:0.26458332px;stroke-linecap:butt;stroke-linejoin:miter;stroke-opacity:1"
       d="m 154.91175,136.82842 c -2.08083,5.37561 -24.73953,8.72817 -34.21934,16.18475 -9.4798,7.45658 -5.78047,19.01699 1.84968,26.99392 7.63015,7.97692 19.19054,12.36987 31.73374,13.7571 12.54321,1.38724 26.06923,-0.23126 26.0693,-3.58372 7e-5,-3.35246 -13.52608,-8.43922 -18.43926,-13.64168 -4.91319,-5.20246 -1.21385,-10.52026 3.00555,-11.56063 4.21939,-1.04038 8.95949,2.19677 13.58363,8.38154 4.62414,6.18477 9.13282,15.31773 13.46822,17.91875 4.3354,2.60103 8.49715,-1.32951 9.88781,-14.68143 1.39066,-13.35191 -0.004,-36.35849 -6.88214,-53.58354 -6.87846,-17.22505 -19.24839,-28.78573 -32.65851,-28.901451 -13.41011,-0.115721 -27.86081,11.213621 -25.8376,20.577891 2.02321,9.36427 20.51974,16.76289 18.43892,22.1385 z"
       id="path3811"
       inkscape:connector-curvature="0"
       inkscape:path-effect="#path-effect3813"
       inkscape:original-d="m 175.48933,138.85151 c -22.65844,3.3523 -45.31714,6.70486 -67.9761,10.05769 3.69969,11.56045 7.39902,23.12086 11.09814,34.68168 11.56099,4.39281 23.12138,8.78576 34.68168,13.17904 13.52596,-1.61872 27.05198,-3.23722 40.57758,-4.85543 -13.52531,-5.0868 -27.05146,-10.17356 -40.57758,-15.25994 3.69969,-5.31818 7.39903,-10.63598 11.09814,-15.95358 4.73983,3.23651 9.47993,6.47365 14.21949,9.71087 4.50883,9.13247 9.01751,18.26543 13.52586,27.39853 4.16212,-3.9309 8.32387,-7.86144 12.48541,-11.79177 -1.38692,-22.77308 -2.77428,-45.78009 -4.16181,-68.66974 -12.3694,-11.5607 -24.73933,-23.121386 -37.1094,-34.681682 -14.45045,11.329095 -28.90114,22.658442 -43.35211,33.988052 18.49754,7.39864 36.99407,14.79725 55.4907,22.19628 z" />
  </g>
  <g
     inkscape:groupmode="layer"
     id="layer16"
     inkscape:label="Capa 16"
     style="display:inline" />
</svg>
